<svg xmlns="http://www.w3.org/2000/svg" version="1.1" xmlns:xlink="http://www.w3.org/1999/xlink"   x="0" y="0" viewBox="0 0 512.001 512.001" style="enable-background:new 0 0 512 512" xml:space="preserve" class=""><g><path d="m508.977 246.637-35.34-48.973 6.157-60.054a16.001 16.001 0 0 0-9.383-16.238l-55.117-24.66-24.657-55.121a16.01 16.01 0 0 0-16.234-9.383l-60.082 6.153L265.36 3.024a16.012 16.012 0 0 0-18.727 0L197.672 38.36l-60.07-6.153a16.03 16.03 0 0 0-16.234 9.387L96.716 96.711l-55.121 24.653a16 16 0 0 0-9.387 16.234l6.153 60.078-35.333 48.961a16.005 16.005 0 0 0-.004 18.727l35.34 48.969-6.149 60.074a16.001 16.001 0 0 0 9.383 16.234l55.109 24.649 24.66 55.125c2.821 6.301 9.395 10.078 16.234 9.383l60.07-6.149 48.961 35.328a15.993 15.993 0 0 0 9.363 3.023c3.281 0 6.566-1.008 9.359-3.023l48.973-35.328 60.078 6.145a15.973 15.973 0 0 0 16.234-9.387l24.653-55.109 55.117-24.657a16.005 16.005 0 0 0 9.383-16.234l-6.153-60.074 35.336-48.969a16.009 16.009 0 0 0 .002-18.727z" style="" fill="#6bde79" data-original="#f34336" class="" opacity="1"></path><path d="m508.977 246.637-35.34-48.973 6.157-60.054a16.001 16.001 0 0 0-9.383-16.238l-55.117-24.66-24.657-55.121a16.01 16.01 0 0 0-16.234-9.383l-48.691 4.985c1.201 1.277 2.233 2.735 2.976 4.398l24.657 55.121 55.117 24.66a16.002 16.002 0 0 1 9.383 16.238l-6.157 60.054 35.34 48.973a16.012 16.012 0 0 1 0 18.727l-35.336 48.969 6.153 60.074a16.005 16.005 0 0 1-9.383 16.234l-55.117 24.657-24.653 55.109c-.746 1.668-1.777 3.129-2.98 4.406l48.695 4.981a15.973 15.973 0 0 0 16.234-9.387l24.653-55.109 55.117-24.657a16.005 16.005 0 0 0 9.383-16.234l-6.153-60.074 35.336-48.969a16.012 16.012 0 0 0 0-18.727z" style="" fill="#52ab6f" data-original="#d22f2f" class="" opacity="1"></path><path d="M134.852 197.168H88c-6.629 0-12 5.371-12 12v93.672c0 6.629 5.371 12 12 12 6.628 0 12-5.371 12-12V268h25.469c6.629 0 12-5.375 12-12 0-6.624-5.371-12-12-12H100v-22.832h34.852c6.629 0 12-5.371 12-12s-5.371-12-12-12zM327.625 221.156c6.629-.004 11.996-5.379 11.996-12.008-.004-6.625-5.375-11.993-12-11.993h-.004l-46.84.012c-6.625.004-11.996 5.375-11.996 12v93.683a12.008 12.008 0 0 0 12.001 12.001h.004l46.84-.016c6.629 0 11.996-5.375 11.996-12.004-.004-6.625-5.375-11.996-12-11.996h-.004l-34.836.008V268l25.469-.004c6.625-.004 11.996-5.375 11.996-12.004 0-6.625-5.375-11.996-12-11.996h-.004l-25.461.004v-22.836l34.843-.008zM424 290.836l-34.84.004V268l25.469-.004c6.629-.004 12-5.375 12-12.004 0-6.625-5.375-12-12-11.996L389.16 244v-22.836l34.844-.008c6.629-.004 12-5.379 11.996-12.008-.004-6.625-5.375-11.993-12-11.993h-.004l-46.84.012c-6.625.004-11.996 5.375-11.996 12v93.672a12 12 0 0 0 12.001 12.001l46.84-.004c6.629 0 12-5.375 12-12 0-6.629-5.376-12-12.001-12zM215.7 268h13.184c6.629 0 12-5.375 12-12v-46.832c0-6.629-5.371-12-12-12h-46.832c-6.629 0-12 5.371-12 12v93.672c0 6.629 5.371 12 12 12s12-5.371 12-12v-22.55l31.035 31.039a11.957 11.957 0 0 0 8.485 3.512c3.07 0 6.141-1.172 8.485-3.512 4.688-4.688 4.688-12.285 0-16.972L215.7 268zm-21.648-46.832h22.832V244h-22.832v-22.832z" style="" fill="#000000" data-original="#feea3b" class="" opacity="1"></path></g></svg>